<mxfile host="Electron" modified="2023-11-07T01:42:55.035Z" agent="Mozilla/5.0 (Windows NT 10.0; Win64; x64) AppleWebKit/537.36 (KHTML, like Gecko) draw.io/22.0.2 Chrome/114.0.5735.289 Electron/25.8.4 Safari/537.36" etag="VzamMgR6_ZrOlB9jcOQN" version="22.0.2" type="device">
  <diagram name="PÃ¡gina-1" id="M6LI-v_rbuGc39mXxmUO">
    <mxGraphModel dx="1981" dy="582" grid="1" gridSize="10" guides="1" tooltips="1" connect="1" arrows="1" fold="1" page="1" pageScale="1" pageWidth="827" pageHeight="1169" math="0" shadow="0">
      <root>
        <mxCell id="0" />
        <mxCell id="1" parent="0" />
        <mxCell id="2cFxH-H-21OQhrOAg9Yz-101" value="" style="rounded=0;whiteSpace=wrap;html=1;" vertex="1" parent="1">
          <mxGeometry x="20" y="510" width="260" height="100" as="geometry" />
        </mxCell>
        <mxCell id="5ahlIv-fHoug34yHB7uJ-8" value="" style="rounded=0;whiteSpace=wrap;html=1;" parent="1" vertex="1">
          <mxGeometry x="-810" y="1000" width="120" height="60" as="geometry" />
        </mxCell>
        <mxCell id="5ahlIv-fHoug34yHB7uJ-1" value="Client" style="shape=umlActor;verticalLabelPosition=bottom;verticalAlign=top;html=1;outlineConnect=0;" parent="1" vertex="1">
          <mxGeometry x="-765" y="880" width="30" height="60" as="geometry" />
        </mxCell>
        <mxCell id="5ahlIv-fHoug34yHB7uJ-2" value="&lt;font style=&quot;font-size: 18px;&quot;&gt;...&lt;/font&gt;" style="text;html=1;strokeColor=none;fillColor=none;align=center;verticalAlign=middle;whiteSpace=wrap;rounded=0;" parent="1" vertex="1">
          <mxGeometry x="-695" y="895" width="30" height="30" as="geometry" />
        </mxCell>
        <mxCell id="5ahlIv-fHoug34yHB7uJ-3" value="Client" style="shape=umlActor;verticalLabelPosition=bottom;verticalAlign=top;html=1;outlineConnect=0;" parent="1" vertex="1">
          <mxGeometry x="-625" y="880" width="30" height="60" as="geometry" />
        </mxCell>
        <mxCell id="5ahlIv-fHoug34yHB7uJ-10" value="" style="endArrow=classic;startArrow=classic;html=1;rounded=0;exitX=0.5;exitY=0;exitDx=0;exitDy=0;" parent="1" source="5ahlIv-fHoug34yHB7uJ-8" edge="1">
          <mxGeometry width="50" height="50" relative="1" as="geometry">
            <mxPoint x="-705" y="1160" as="sourcePoint" />
            <mxPoint x="-750" y="960" as="targetPoint" />
          </mxGeometry>
        </mxCell>
        <mxCell id="5ahlIv-fHoug34yHB7uJ-11" value="" style="endArrow=classic;startArrow=classic;html=1;rounded=0;exitX=0.5;exitY=0;exitDx=0;exitDy=0;" parent="1" edge="1">
          <mxGeometry width="50" height="50" relative="1" as="geometry">
            <mxPoint x="-609.34" y="1000" as="sourcePoint" />
            <mxPoint x="-609.34" y="960" as="targetPoint" />
          </mxGeometry>
        </mxCell>
        <mxCell id="5ahlIv-fHoug34yHB7uJ-12" value="Local Database" style="text;html=1;strokeColor=none;fillColor=none;align=center;verticalAlign=middle;whiteSpace=wrap;rounded=0;" parent="1" vertex="1">
          <mxGeometry x="-797.5" y="1060" width="95" height="30" as="geometry" />
        </mxCell>
        <mxCell id="5ahlIv-fHoug34yHB7uJ-13" value="Local Database" style="text;html=1;strokeColor=none;fillColor=none;align=center;verticalAlign=middle;whiteSpace=wrap;rounded=0;" parent="1" vertex="1">
          <mxGeometry x="-657.5" y="1060" width="95" height="30" as="geometry" />
        </mxCell>
        <mxCell id="5ahlIv-fHoug34yHB7uJ-20" value="Load Balancer" style="rounded=0;whiteSpace=wrap;html=1;" parent="1" vertex="1">
          <mxGeometry x="-740" y="760" width="120" height="60" as="geometry" />
        </mxCell>
        <mxCell id="5ahlIv-fHoug34yHB7uJ-21" value="" style="endArrow=classic;startArrow=classic;html=1;rounded=0;" parent="1" edge="1">
          <mxGeometry width="50" height="50" relative="1" as="geometry">
            <mxPoint x="-745" y="870" as="sourcePoint" />
            <mxPoint x="-695" y="830" as="targetPoint" />
          </mxGeometry>
        </mxCell>
        <mxCell id="5ahlIv-fHoug34yHB7uJ-22" value="" style="endArrow=classic;startArrow=classic;html=1;rounded=0;" parent="1" edge="1">
          <mxGeometry width="50" height="50" relative="1" as="geometry">
            <mxPoint x="-625" y="870" as="sourcePoint" />
            <mxPoint x="-675" y="830" as="targetPoint" />
          </mxGeometry>
        </mxCell>
        <mxCell id="5ahlIv-fHoug34yHB7uJ-25" value="" style="ellipse;shape=cloud;whiteSpace=wrap;html=1;" parent="1" vertex="1">
          <mxGeometry x="-651.25" y="620" width="82.5" height="60" as="geometry" />
        </mxCell>
        <mxCell id="5ahlIv-fHoug34yHB7uJ-26" value="Server" style="text;html=1;strokeColor=none;fillColor=none;align=center;verticalAlign=middle;whiteSpace=wrap;rounded=0;" parent="1" vertex="1">
          <mxGeometry x="-640" y="670" width="60" height="30" as="geometry" />
        </mxCell>
        <mxCell id="5ahlIv-fHoug34yHB7uJ-27" value="" style="ellipse;shape=cloud;whiteSpace=wrap;html=1;" parent="1" vertex="1">
          <mxGeometry x="-791.25" y="620" width="82.5" height="60" as="geometry" />
        </mxCell>
        <mxCell id="5ahlIv-fHoug34yHB7uJ-28" value="Server" style="text;html=1;strokeColor=none;fillColor=none;align=center;verticalAlign=middle;whiteSpace=wrap;rounded=0;" parent="1" vertex="1">
          <mxGeometry x="-780" y="670" width="60" height="30" as="geometry" />
        </mxCell>
        <mxCell id="5ahlIv-fHoug34yHB7uJ-29" value="&lt;font style=&quot;font-size: 18px;&quot;&gt;...&lt;/font&gt;" style="text;html=1;strokeColor=none;fillColor=none;align=center;verticalAlign=middle;whiteSpace=wrap;rounded=0;" parent="1" vertex="1">
          <mxGeometry x="-696.25" y="635" width="30" height="30" as="geometry" />
        </mxCell>
        <mxCell id="5ahlIv-fHoug34yHB7uJ-30" value="" style="endArrow=classic;startArrow=classic;html=1;rounded=0;entryX=0.143;entryY=0.985;entryDx=0;entryDy=0;entryPerimeter=0;" parent="1" target="5ahlIv-fHoug34yHB7uJ-26" edge="1">
          <mxGeometry width="50" height="50" relative="1" as="geometry">
            <mxPoint x="-670" y="750" as="sourcePoint" />
            <mxPoint x="-620" y="710" as="targetPoint" />
          </mxGeometry>
        </mxCell>
        <mxCell id="5ahlIv-fHoug34yHB7uJ-31" value="" style="endArrow=classic;startArrow=classic;html=1;rounded=0;entryX=0.75;entryY=1;entryDx=0;entryDy=0;" parent="1" target="5ahlIv-fHoug34yHB7uJ-28" edge="1">
          <mxGeometry width="50" height="50" relative="1" as="geometry">
            <mxPoint x="-690" y="750" as="sourcePoint" />
            <mxPoint x="-760" y="730" as="targetPoint" />
          </mxGeometry>
        </mxCell>
        <mxCell id="5ahlIv-fHoug34yHB7uJ-35" value="1" style="shape=datastore;whiteSpace=wrap;html=1;" parent="1" vertex="1">
          <mxGeometry x="-790" y="1010" width="30" height="45" as="geometry" />
        </mxCell>
        <mxCell id="5ahlIv-fHoug34yHB7uJ-36" value="2" style="shape=datastore;whiteSpace=wrap;html=1;" parent="1" vertex="1">
          <mxGeometry x="-740" y="1010" width="30" height="45" as="geometry" />
        </mxCell>
        <mxCell id="5ahlIv-fHoug34yHB7uJ-37" value="" style="rounded=0;whiteSpace=wrap;html=1;" parent="1" vertex="1">
          <mxGeometry x="-670" y="1000" width="120" height="60" as="geometry" />
        </mxCell>
        <mxCell id="5ahlIv-fHoug34yHB7uJ-38" value="1" style="shape=datastore;whiteSpace=wrap;html=1;" parent="1" vertex="1">
          <mxGeometry x="-650" y="1010" width="30" height="45" as="geometry" />
        </mxCell>
        <mxCell id="5ahlIv-fHoug34yHB7uJ-39" value="2" style="shape=datastore;whiteSpace=wrap;html=1;" parent="1" vertex="1">
          <mxGeometry x="-600" y="1010" width="30" height="45" as="geometry" />
        </mxCell>
        <mxCell id="5ahlIv-fHoug34yHB7uJ-40" value="" style="shape=datastore;whiteSpace=wrap;html=1;" parent="1" vertex="1">
          <mxGeometry x="-760" y="635" width="20" height="30" as="geometry" />
        </mxCell>
        <mxCell id="5ahlIv-fHoug34yHB7uJ-41" value="" style="shape=datastore;whiteSpace=wrap;html=1;" parent="1" vertex="1">
          <mxGeometry x="-620" y="635" width="20" height="30" as="geometry" />
        </mxCell>
        <mxCell id="2cFxH-H-21OQhrOAg9Yz-46" value="" style="group" vertex="1" connectable="0" parent="1">
          <mxGeometry x="10" y="55" width="281" height="280" as="geometry" />
        </mxCell>
        <mxCell id="2cFxH-H-21OQhrOAg9Yz-9" value="" style="ellipse;whiteSpace=wrap;html=1;aspect=fixed;" vertex="1" parent="2cFxH-H-21OQhrOAg9Yz-46">
          <mxGeometry width="280" height="280" as="geometry" />
        </mxCell>
        <mxCell id="2cFxH-H-21OQhrOAg9Yz-11" value="" style="endArrow=none;html=1;rounded=0;entryX=0.5;entryY=0;entryDx=0;entryDy=0;exitX=0.5;exitY=0;exitDx=0;exitDy=0;" edge="1" parent="2cFxH-H-21OQhrOAg9Yz-46" source="2cFxH-H-21OQhrOAg9Yz-10" target="2cFxH-H-21OQhrOAg9Yz-9">
          <mxGeometry width="50" height="50" relative="1" as="geometry">
            <mxPoint x="360" y="120" as="sourcePoint" />
            <mxPoint x="410" y="70" as="targetPoint" />
          </mxGeometry>
        </mxCell>
        <mxCell id="2cFxH-H-21OQhrOAg9Yz-12" value="" style="endArrow=none;html=1;rounded=0;entryX=1;entryY=0.5;entryDx=0;entryDy=0;exitX=1;exitY=0.5;exitDx=0;exitDy=0;" edge="1" parent="2cFxH-H-21OQhrOAg9Yz-46" source="2cFxH-H-21OQhrOAg9Yz-10" target="2cFxH-H-21OQhrOAg9Yz-9">
          <mxGeometry width="50" height="50" relative="1" as="geometry">
            <mxPoint x="310" y="180" as="sourcePoint" />
            <mxPoint x="360" y="130" as="targetPoint" />
          </mxGeometry>
        </mxCell>
        <mxCell id="2cFxH-H-21OQhrOAg9Yz-13" value="" style="endArrow=none;html=1;rounded=0;entryX=0.5;entryY=1;entryDx=0;entryDy=0;exitX=0.5;exitY=1;exitDx=0;exitDy=0;" edge="1" parent="2cFxH-H-21OQhrOAg9Yz-46" source="2cFxH-H-21OQhrOAg9Yz-9" target="2cFxH-H-21OQhrOAg9Yz-10">
          <mxGeometry width="50" height="50" relative="1" as="geometry">
            <mxPoint x="340" y="170" as="sourcePoint" />
            <mxPoint x="390" y="120" as="targetPoint" />
          </mxGeometry>
        </mxCell>
        <mxCell id="2cFxH-H-21OQhrOAg9Yz-14" value="" style="endArrow=none;html=1;rounded=0;exitX=0;exitY=0.5;exitDx=0;exitDy=0;entryX=0;entryY=0.5;entryDx=0;entryDy=0;fontStyle=0" edge="1" parent="2cFxH-H-21OQhrOAg9Yz-46" source="2cFxH-H-21OQhrOAg9Yz-10" target="2cFxH-H-21OQhrOAg9Yz-9">
          <mxGeometry width="50" height="50" relative="1" as="geometry">
            <mxPoint x="50" y="120" as="sourcePoint" />
            <mxPoint y="170" as="targetPoint" />
          </mxGeometry>
        </mxCell>
        <mxCell id="2cFxH-H-21OQhrOAg9Yz-15" value="" style="endArrow=none;html=1;rounded=0;entryX=1;entryY=0;entryDx=0;entryDy=0;exitX=1;exitY=0;exitDx=0;exitDy=0;" edge="1" parent="2cFxH-H-21OQhrOAg9Yz-46" source="2cFxH-H-21OQhrOAg9Yz-10" target="2cFxH-H-21OQhrOAg9Yz-9">
          <mxGeometry width="50" height="50" relative="1" as="geometry">
            <mxPoint x="350" y="70" as="sourcePoint" />
            <mxPoint x="310" y="50" as="targetPoint" />
          </mxGeometry>
        </mxCell>
        <mxCell id="2cFxH-H-21OQhrOAg9Yz-16" value="" style="endArrow=none;html=1;rounded=0;entryX=0.863;entryY=0.842;entryDx=0;entryDy=0;entryPerimeter=0;exitX=1;exitY=1;exitDx=0;exitDy=0;" edge="1" parent="2cFxH-H-21OQhrOAg9Yz-46" source="2cFxH-H-21OQhrOAg9Yz-9" target="2cFxH-H-21OQhrOAg9Yz-10">
          <mxGeometry width="50" height="50" relative="1" as="geometry">
            <mxPoint x="330" y="260" as="sourcePoint" />
            <mxPoint x="380" y="210" as="targetPoint" />
          </mxGeometry>
        </mxCell>
        <mxCell id="2cFxH-H-21OQhrOAg9Yz-17" value="" style="endArrow=none;html=1;rounded=0;entryX=0;entryY=1;entryDx=0;entryDy=0;exitX=0;exitY=1;exitDx=0;exitDy=0;" edge="1" parent="2cFxH-H-21OQhrOAg9Yz-46" source="2cFxH-H-21OQhrOAg9Yz-9" target="2cFxH-H-21OQhrOAg9Yz-10">
          <mxGeometry width="50" height="50" relative="1" as="geometry">
            <mxPoint x="320" y="260" as="sourcePoint" />
            <mxPoint x="370" y="210" as="targetPoint" />
          </mxGeometry>
        </mxCell>
        <mxCell id="2cFxH-H-21OQhrOAg9Yz-18" value="" style="endArrow=none;html=1;rounded=0;entryX=0;entryY=0;entryDx=0;entryDy=0;exitX=0;exitY=0;exitDx=0;exitDy=0;" edge="1" parent="2cFxH-H-21OQhrOAg9Yz-46" source="2cFxH-H-21OQhrOAg9Yz-9" target="2cFxH-H-21OQhrOAg9Yz-10">
          <mxGeometry width="50" height="50" relative="1" as="geometry">
            <mxPoint x="340" y="200" as="sourcePoint" />
            <mxPoint x="390" y="150" as="targetPoint" />
          </mxGeometry>
        </mxCell>
        <mxCell id="2cFxH-H-21OQhrOAg9Yz-19" value="" style="endArrow=none;html=1;rounded=0;entryX=0.956;entryY=0.303;entryDx=0;entryDy=0;entryPerimeter=0;" edge="1" parent="2cFxH-H-21OQhrOAg9Yz-46" target="2cFxH-H-21OQhrOAg9Yz-9">
          <mxGeometry width="50" height="50" relative="1" as="geometry">
            <mxPoint x="240" y="100" as="sourcePoint" />
            <mxPoint x="220" y="120" as="targetPoint" />
            <Array as="points">
              <mxPoint x="240" y="100" />
            </Array>
          </mxGeometry>
        </mxCell>
        <mxCell id="2cFxH-H-21OQhrOAg9Yz-20" value="" style="endArrow=none;html=1;rounded=0;exitX=0.299;exitY=0.959;exitDx=0;exitDy=0;exitPerimeter=0;entryX=0.693;entryY=0.044;entryDx=0;entryDy=0;entryPerimeter=0;" edge="1" parent="2cFxH-H-21OQhrOAg9Yz-46" source="2cFxH-H-21OQhrOAg9Yz-9" target="2cFxH-H-21OQhrOAg9Yz-9">
          <mxGeometry width="50" height="50" relative="1" as="geometry">
            <mxPoint x="50" y="110" as="sourcePoint" />
            <mxPoint x="190" y="10" as="targetPoint" />
          </mxGeometry>
        </mxCell>
        <mxCell id="2cFxH-H-21OQhrOAg9Yz-21" value="" style="endArrow=none;html=1;rounded=0;" edge="1" parent="2cFxH-H-21OQhrOAg9Yz-46">
          <mxGeometry width="50" height="50" relative="1" as="geometry">
            <mxPoint x="10" y="195" as="sourcePoint" />
            <mxPoint x="40" y="180" as="targetPoint" />
            <Array as="points" />
          </mxGeometry>
        </mxCell>
        <mxCell id="2cFxH-H-21OQhrOAg9Yz-23" value="" style="endArrow=none;html=1;rounded=0;exitX=0.033;exitY=0.323;exitDx=0;exitDy=0;exitPerimeter=0;" edge="1" parent="2cFxH-H-21OQhrOAg9Yz-46" source="2cFxH-H-21OQhrOAg9Yz-9">
          <mxGeometry width="50" height="50" relative="1" as="geometry">
            <mxPoint x="430.8" y="190" as="sourcePoint" />
            <mxPoint x="270" y="190" as="targetPoint" />
          </mxGeometry>
        </mxCell>
        <mxCell id="2cFxH-H-21OQhrOAg9Yz-24" value="" style="endArrow=none;html=1;rounded=0;entryX=0.323;entryY=0.033;entryDx=0;entryDy=0;entryPerimeter=0;" edge="1" parent="2cFxH-H-21OQhrOAg9Yz-46" target="2cFxH-H-21OQhrOAg9Yz-9">
          <mxGeometry width="50" height="50" relative="1" as="geometry">
            <mxPoint x="190" y="270" as="sourcePoint" />
            <mxPoint x="190" y="330.8" as="targetPoint" />
          </mxGeometry>
        </mxCell>
        <mxCell id="2cFxH-H-21OQhrOAg9Yz-26" value="1" style="text;html=1;strokeColor=none;fillColor=none;align=center;verticalAlign=middle;whiteSpace=wrap;rounded=0;" vertex="1" parent="2cFxH-H-21OQhrOAg9Yz-46">
          <mxGeometry x="116" y="7" width="6" height="20" as="geometry" />
        </mxCell>
        <mxCell id="2cFxH-H-21OQhrOAg9Yz-27" value="2" style="text;html=1;strokeColor=none;fillColor=none;align=center;verticalAlign=middle;whiteSpace=wrap;rounded=0;" vertex="1" parent="2cFxH-H-21OQhrOAg9Yz-46">
          <mxGeometry x="149" y="251" width="26" height="20" as="geometry" />
        </mxCell>
        <mxCell id="2cFxH-H-21OQhrOAg9Yz-28" value="3" style="text;html=1;strokeColor=none;fillColor=none;align=center;verticalAlign=middle;whiteSpace=wrap;rounded=0;" vertex="1" parent="2cFxH-H-21OQhrOAg9Yz-46">
          <mxGeometry x="102" y="252" width="26" height="20" as="geometry" />
        </mxCell>
        <mxCell id="2cFxH-H-21OQhrOAg9Yz-29" value="4" style="text;html=1;strokeColor=none;fillColor=none;align=center;verticalAlign=middle;whiteSpace=wrap;rounded=0;" vertex="1" parent="2cFxH-H-21OQhrOAg9Yz-46">
          <mxGeometry x="158" y="9" width="12" height="20" as="geometry" />
        </mxCell>
        <mxCell id="2cFxH-H-21OQhrOAg9Yz-30" value="4" style="text;html=1;strokeColor=none;fillColor=none;align=center;verticalAlign=middle;whiteSpace=wrap;rounded=0;" vertex="1" parent="2cFxH-H-21OQhrOAg9Yz-46">
          <mxGeometry x="255" y="152" width="12" height="20" as="geometry" />
        </mxCell>
        <mxCell id="2cFxH-H-21OQhrOAg9Yz-31" value="4" style="text;html=1;strokeColor=none;fillColor=none;align=center;verticalAlign=middle;whiteSpace=wrap;rounded=0;" vertex="1" parent="2cFxH-H-21OQhrOAg9Yz-46">
          <mxGeometry x="30" y="196" width="12" height="20" as="geometry" />
        </mxCell>
        <mxCell id="2cFxH-H-21OQhrOAg9Yz-32" value="4" style="text;html=1;strokeColor=none;fillColor=none;align=center;verticalAlign=middle;whiteSpace=wrap;rounded=0;" vertex="1" parent="2cFxH-H-21OQhrOAg9Yz-46">
          <mxGeometry x="13" y="109" width="12" height="20" as="geometry" />
        </mxCell>
        <mxCell id="2cFxH-H-21OQhrOAg9Yz-33" value="1" style="text;html=1;strokeColor=none;fillColor=none;align=center;verticalAlign=middle;whiteSpace=wrap;rounded=0;" vertex="1" parent="2cFxH-H-21OQhrOAg9Yz-46">
          <mxGeometry x="208" y="27" width="6" height="20" as="geometry" />
        </mxCell>
        <mxCell id="2cFxH-H-21OQhrOAg9Yz-34" value="1" style="text;html=1;strokeColor=none;fillColor=none;align=center;verticalAlign=middle;whiteSpace=wrap;rounded=0;" vertex="1" parent="2cFxH-H-21OQhrOAg9Yz-46">
          <mxGeometry x="206" y="233" width="6" height="20" as="geometry" />
        </mxCell>
        <mxCell id="2cFxH-H-21OQhrOAg9Yz-35" value="1" style="text;html=1;strokeColor=none;fillColor=none;align=center;verticalAlign=middle;whiteSpace=wrap;rounded=0;" vertex="1" parent="2cFxH-H-21OQhrOAg9Yz-46">
          <mxGeometry x="67" y="232" width="6" height="20" as="geometry" />
        </mxCell>
        <mxCell id="2cFxH-H-21OQhrOAg9Yz-36" value="2" style="text;html=1;strokeColor=none;fillColor=none;align=center;verticalAlign=middle;whiteSpace=wrap;rounded=0;" vertex="1" parent="2cFxH-H-21OQhrOAg9Yz-46">
          <mxGeometry x="256" y="109" width="11" height="16" as="geometry" />
        </mxCell>
        <mxCell id="2cFxH-H-21OQhrOAg9Yz-37" value="2" style="text;html=1;strokeColor=none;fillColor=none;align=center;verticalAlign=middle;whiteSpace=wrap;rounded=0;" vertex="1" parent="2cFxH-H-21OQhrOAg9Yz-46">
          <mxGeometry x="22" y="64" width="26" height="20" as="geometry" />
        </mxCell>
        <mxCell id="2cFxH-H-21OQhrOAg9Yz-38" value="2" style="text;html=1;strokeColor=none;fillColor=none;align=center;verticalAlign=middle;whiteSpace=wrap;rounded=0;" vertex="1" parent="2cFxH-H-21OQhrOAg9Yz-46">
          <mxGeometry x="5" y="154" width="26" height="20" as="geometry" />
        </mxCell>
        <mxCell id="2cFxH-H-21OQhrOAg9Yz-39" value="3" style="text;html=1;strokeColor=none;fillColor=none;align=center;verticalAlign=middle;whiteSpace=wrap;rounded=0;" vertex="1" parent="2cFxH-H-21OQhrOAg9Yz-46">
          <mxGeometry x="60" y="27" width="26" height="20" as="geometry" />
        </mxCell>
        <mxCell id="2cFxH-H-21OQhrOAg9Yz-40" value="3" style="text;html=1;strokeColor=none;fillColor=none;align=center;verticalAlign=middle;whiteSpace=wrap;rounded=0;" vertex="1" parent="2cFxH-H-21OQhrOAg9Yz-46">
          <mxGeometry x="230" y="62" width="26" height="20" as="geometry" />
        </mxCell>
        <mxCell id="2cFxH-H-21OQhrOAg9Yz-41" value="3" style="text;html=1;strokeColor=none;fillColor=none;align=center;verticalAlign=middle;whiteSpace=wrap;rounded=0;" vertex="1" parent="2cFxH-H-21OQhrOAg9Yz-46">
          <mxGeometry x="232" y="195" width="26" height="20" as="geometry" />
        </mxCell>
        <mxCell id="2cFxH-H-21OQhrOAg9Yz-44" value="" style="line;strokeWidth=4;direction=south;html=1;perimeter=backbonePerimeter;points=[];outlineConnect=0;rotation=-90;" vertex="1" parent="2cFxH-H-21OQhrOAg9Yz-46">
          <mxGeometry x="136" width="10" height="280" as="geometry" />
        </mxCell>
        <mxCell id="2cFxH-H-21OQhrOAg9Yz-45" value="" style="line;strokeWidth=4;direction=south;html=1;perimeter=backbonePerimeter;points=[];outlineConnect=0;" vertex="1" parent="2cFxH-H-21OQhrOAg9Yz-46">
          <mxGeometry x="135" width="10" height="280" as="geometry" />
        </mxCell>
        <mxCell id="2cFxH-H-21OQhrOAg9Yz-10" value="" style="ellipse;whiteSpace=wrap;html=1;aspect=fixed;" vertex="1" parent="2cFxH-H-21OQhrOAg9Yz-46">
          <mxGeometry x="32.5" y="32.5" width="215" height="215" as="geometry" />
        </mxCell>
        <mxCell id="2cFxH-H-21OQhrOAg9Yz-70" value="" style="rounded=0;whiteSpace=wrap;html=1;" vertex="1" parent="1">
          <mxGeometry x="160" y="1070" width="120" height="60" as="geometry" />
        </mxCell>
        <mxCell id="2cFxH-H-21OQhrOAg9Yz-71" value="Client" style="shape=umlActor;verticalLabelPosition=bottom;verticalAlign=top;html=1;outlineConnect=0;" vertex="1" parent="1">
          <mxGeometry x="205" y="950" width="30" height="60" as="geometry" />
        </mxCell>
        <mxCell id="2cFxH-H-21OQhrOAg9Yz-72" value="&lt;font style=&quot;font-size: 18px;&quot;&gt;...&lt;/font&gt;" style="text;html=1;strokeColor=none;fillColor=none;align=center;verticalAlign=middle;whiteSpace=wrap;rounded=0;" vertex="1" parent="1">
          <mxGeometry x="275" y="965" width="30" height="30" as="geometry" />
        </mxCell>
        <mxCell id="2cFxH-H-21OQhrOAg9Yz-73" value="Client" style="shape=umlActor;verticalLabelPosition=bottom;verticalAlign=top;html=1;outlineConnect=0;" vertex="1" parent="1">
          <mxGeometry x="345" y="950" width="30" height="60" as="geometry" />
        </mxCell>
        <mxCell id="2cFxH-H-21OQhrOAg9Yz-74" value="" style="endArrow=classic;startArrow=classic;html=1;rounded=0;exitX=0.5;exitY=0;exitDx=0;exitDy=0;" edge="1" parent="1" source="2cFxH-H-21OQhrOAg9Yz-70">
          <mxGeometry width="50" height="50" relative="1" as="geometry">
            <mxPoint x="265" y="1230" as="sourcePoint" />
            <mxPoint x="220" y="1030" as="targetPoint" />
          </mxGeometry>
        </mxCell>
        <mxCell id="2cFxH-H-21OQhrOAg9Yz-75" value="" style="endArrow=classic;startArrow=classic;html=1;rounded=0;exitX=0.5;exitY=0;exitDx=0;exitDy=0;" edge="1" parent="1">
          <mxGeometry width="50" height="50" relative="1" as="geometry">
            <mxPoint x="360.65999999999997" y="1070" as="sourcePoint" />
            <mxPoint x="360.65999999999997" y="1030" as="targetPoint" />
          </mxGeometry>
        </mxCell>
        <mxCell id="2cFxH-H-21OQhrOAg9Yz-76" value="Local Database" style="text;html=1;strokeColor=none;fillColor=none;align=center;verticalAlign=middle;whiteSpace=wrap;rounded=0;" vertex="1" parent="1">
          <mxGeometry x="172.5" y="1130" width="95" height="30" as="geometry" />
        </mxCell>
        <mxCell id="2cFxH-H-21OQhrOAg9Yz-77" value="Local Database" style="text;html=1;strokeColor=none;fillColor=none;align=center;verticalAlign=middle;whiteSpace=wrap;rounded=0;" vertex="1" parent="1">
          <mxGeometry x="312.5" y="1130" width="95" height="30" as="geometry" />
        </mxCell>
        <mxCell id="2cFxH-H-21OQhrOAg9Yz-78" value="First-Tier Load Balancer" style="rounded=0;whiteSpace=wrap;html=1;" vertex="1" parent="1">
          <mxGeometry x="230" y="830" width="120" height="60" as="geometry" />
        </mxCell>
        <mxCell id="2cFxH-H-21OQhrOAg9Yz-79" value="" style="endArrow=classic;startArrow=classic;html=1;rounded=0;" edge="1" parent="1">
          <mxGeometry width="50" height="50" relative="1" as="geometry">
            <mxPoint x="225" y="940" as="sourcePoint" />
            <mxPoint x="275" y="900" as="targetPoint" />
          </mxGeometry>
        </mxCell>
        <mxCell id="2cFxH-H-21OQhrOAg9Yz-80" value="" style="endArrow=classic;startArrow=classic;html=1;rounded=0;" edge="1" parent="1">
          <mxGeometry width="50" height="50" relative="1" as="geometry">
            <mxPoint x="345" y="940" as="sourcePoint" />
            <mxPoint x="295" y="900" as="targetPoint" />
          </mxGeometry>
        </mxCell>
        <mxCell id="2cFxH-H-21OQhrOAg9Yz-81" value="" style="ellipse;shape=cloud;whiteSpace=wrap;html=1;" vertex="1" parent="1">
          <mxGeometry x="175" y="520" width="82.5" height="60" as="geometry" />
        </mxCell>
        <mxCell id="2cFxH-H-21OQhrOAg9Yz-82" value="Server" style="text;html=1;strokeColor=none;fillColor=none;align=center;verticalAlign=middle;whiteSpace=wrap;rounded=0;" vertex="1" parent="1">
          <mxGeometry x="186.25" y="570" width="60" height="30" as="geometry" />
        </mxCell>
        <mxCell id="2cFxH-H-21OQhrOAg9Yz-83" value="" style="ellipse;shape=cloud;whiteSpace=wrap;html=1;" vertex="1" parent="1">
          <mxGeometry x="35" y="520" width="82.5" height="60" as="geometry" />
        </mxCell>
        <mxCell id="2cFxH-H-21OQhrOAg9Yz-84" value="Server" style="text;html=1;strokeColor=none;fillColor=none;align=center;verticalAlign=middle;whiteSpace=wrap;rounded=0;" vertex="1" parent="1">
          <mxGeometry x="46.25" y="570" width="60" height="30" as="geometry" />
        </mxCell>
        <mxCell id="2cFxH-H-21OQhrOAg9Yz-85" value="&lt;font style=&quot;font-size: 18px;&quot;&gt;...&lt;/font&gt;" style="text;html=1;strokeColor=none;fillColor=none;align=center;verticalAlign=middle;whiteSpace=wrap;rounded=0;" vertex="1" parent="1">
          <mxGeometry x="130" y="535" width="30" height="30" as="geometry" />
        </mxCell>
        <mxCell id="2cFxH-H-21OQhrOAg9Yz-86" value="" style="endArrow=classic;startArrow=classic;html=1;rounded=0;entryX=0.143;entryY=0.985;entryDx=0;entryDy=0;entryPerimeter=0;" edge="1" parent="1">
          <mxGeometry width="50" height="50" relative="1" as="geometry">
            <mxPoint x="300" y="820" as="sourcePoint" />
            <mxPoint x="338.5799999999999" y="769.55" as="targetPoint" />
          </mxGeometry>
        </mxCell>
        <mxCell id="2cFxH-H-21OQhrOAg9Yz-87" value="" style="endArrow=classic;startArrow=classic;html=1;rounded=0;entryX=0.75;entryY=1;entryDx=0;entryDy=0;" edge="1" parent="1">
          <mxGeometry width="50" height="50" relative="1" as="geometry">
            <mxPoint x="280" y="820" as="sourcePoint" />
            <mxPoint x="235" y="770" as="targetPoint" />
          </mxGeometry>
        </mxCell>
        <mxCell id="2cFxH-H-21OQhrOAg9Yz-88" value="1" style="shape=datastore;whiteSpace=wrap;html=1;" vertex="1" parent="1">
          <mxGeometry x="180" y="1080" width="30" height="45" as="geometry" />
        </mxCell>
        <mxCell id="2cFxH-H-21OQhrOAg9Yz-89" value="2" style="shape=datastore;whiteSpace=wrap;html=1;" vertex="1" parent="1">
          <mxGeometry x="230" y="1080" width="30" height="45" as="geometry" />
        </mxCell>
        <mxCell id="2cFxH-H-21OQhrOAg9Yz-90" value="" style="rounded=0;whiteSpace=wrap;html=1;" vertex="1" parent="1">
          <mxGeometry x="300" y="1070" width="120" height="60" as="geometry" />
        </mxCell>
        <mxCell id="2cFxH-H-21OQhrOAg9Yz-91" value="1" style="shape=datastore;whiteSpace=wrap;html=1;" vertex="1" parent="1">
          <mxGeometry x="320" y="1080" width="30" height="45" as="geometry" />
        </mxCell>
        <mxCell id="2cFxH-H-21OQhrOAg9Yz-92" value="2" style="shape=datastore;whiteSpace=wrap;html=1;" vertex="1" parent="1">
          <mxGeometry x="370" y="1080" width="30" height="45" as="geometry" />
        </mxCell>
        <mxCell id="2cFxH-H-21OQhrOAg9Yz-93" value="" style="shape=datastore;whiteSpace=wrap;html=1;" vertex="1" parent="1">
          <mxGeometry x="66.25" y="535" width="20" height="30" as="geometry" />
        </mxCell>
        <mxCell id="2cFxH-H-21OQhrOAg9Yz-94" value="" style="shape=datastore;whiteSpace=wrap;html=1;" vertex="1" parent="1">
          <mxGeometry x="206.25" y="535" width="20" height="30" as="geometry" />
        </mxCell>
        <mxCell id="2cFxH-H-21OQhrOAg9Yz-95" value="Second-Tier Load Balancer" style="rounded=0;whiteSpace=wrap;html=1;" vertex="1" parent="1">
          <mxGeometry x="144" y="700" width="120" height="60" as="geometry" />
        </mxCell>
        <mxCell id="2cFxH-H-21OQhrOAg9Yz-96" value="Second-Tier Load Balancer" style="rounded=0;whiteSpace=wrap;html=1;" vertex="1" parent="1">
          <mxGeometry x="325" y="700" width="120" height="60" as="geometry" />
        </mxCell>
        <mxCell id="2cFxH-H-21OQhrOAg9Yz-102" value="" style="rounded=0;whiteSpace=wrap;html=1;" vertex="1" parent="1">
          <mxGeometry x="305" y="510" width="260" height="100" as="geometry" />
        </mxCell>
        <mxCell id="2cFxH-H-21OQhrOAg9Yz-103" value="" style="ellipse;shape=cloud;whiteSpace=wrap;html=1;" vertex="1" parent="1">
          <mxGeometry x="460" y="520" width="82.5" height="60" as="geometry" />
        </mxCell>
        <mxCell id="2cFxH-H-21OQhrOAg9Yz-104" value="Server" style="text;html=1;strokeColor=none;fillColor=none;align=center;verticalAlign=middle;whiteSpace=wrap;rounded=0;" vertex="1" parent="1">
          <mxGeometry x="471.25" y="570" width="60" height="30" as="geometry" />
        </mxCell>
        <mxCell id="2cFxH-H-21OQhrOAg9Yz-105" value="" style="ellipse;shape=cloud;whiteSpace=wrap;html=1;" vertex="1" parent="1">
          <mxGeometry x="320" y="520" width="82.5" height="60" as="geometry" />
        </mxCell>
        <mxCell id="2cFxH-H-21OQhrOAg9Yz-106" value="Server" style="text;html=1;strokeColor=none;fillColor=none;align=center;verticalAlign=middle;whiteSpace=wrap;rounded=0;" vertex="1" parent="1">
          <mxGeometry x="331.25" y="570" width="60" height="30" as="geometry" />
        </mxCell>
        <mxCell id="2cFxH-H-21OQhrOAg9Yz-107" value="&lt;font style=&quot;font-size: 18px;&quot;&gt;...&lt;/font&gt;" style="text;html=1;strokeColor=none;fillColor=none;align=center;verticalAlign=middle;whiteSpace=wrap;rounded=0;" vertex="1" parent="1">
          <mxGeometry x="415" y="535" width="30" height="30" as="geometry" />
        </mxCell>
        <mxCell id="2cFxH-H-21OQhrOAg9Yz-108" value="" style="shape=datastore;whiteSpace=wrap;html=1;" vertex="1" parent="1">
          <mxGeometry x="351.25" y="535" width="20" height="30" as="geometry" />
        </mxCell>
        <mxCell id="2cFxH-H-21OQhrOAg9Yz-109" value="" style="shape=datastore;whiteSpace=wrap;html=1;" vertex="1" parent="1">
          <mxGeometry x="491.25" y="535" width="20" height="30" as="geometry" />
        </mxCell>
        <mxCell id="2cFxH-H-21OQhrOAg9Yz-110" value="" style="endArrow=classic;startArrow=classic;html=1;rounded=0;" edge="1" parent="1">
          <mxGeometry width="50" height="50" relative="1" as="geometry">
            <mxPoint x="200" y="690" as="sourcePoint" />
            <mxPoint x="200" y="620" as="targetPoint" />
          </mxGeometry>
        </mxCell>
        <mxCell id="2cFxH-H-21OQhrOAg9Yz-111" value="" style="endArrow=classic;startArrow=classic;html=1;rounded=0;" edge="1" parent="1">
          <mxGeometry width="50" height="50" relative="1" as="geometry">
            <mxPoint x="390.48" y="690" as="sourcePoint" />
            <mxPoint x="390.48" y="620" as="targetPoint" />
          </mxGeometry>
        </mxCell>
        <mxCell id="2cFxH-H-21OQhrOAg9Yz-112" value="" style="rounded=0;whiteSpace=wrap;html=1;" vertex="1" parent="1">
          <mxGeometry x="718.5" y="320" width="260" height="100" as="geometry" />
        </mxCell>
        <mxCell id="2cFxH-H-21OQhrOAg9Yz-113" value="" style="rounded=0;whiteSpace=wrap;html=1;" vertex="1" parent="1">
          <mxGeometry x="1145" y="1070" width="120" height="60" as="geometry" />
        </mxCell>
        <mxCell id="2cFxH-H-21OQhrOAg9Yz-114" value="Client" style="shape=umlActor;verticalLabelPosition=bottom;verticalAlign=top;html=1;outlineConnect=0;" vertex="1" parent="1">
          <mxGeometry x="1190" y="950" width="30" height="60" as="geometry" />
        </mxCell>
        <mxCell id="2cFxH-H-21OQhrOAg9Yz-115" value="&lt;font style=&quot;font-size: 18px;&quot;&gt;...&lt;/font&gt;" style="text;html=1;strokeColor=none;fillColor=none;align=center;verticalAlign=middle;whiteSpace=wrap;rounded=0;" vertex="1" parent="1">
          <mxGeometry x="1260" y="965" width="30" height="30" as="geometry" />
        </mxCell>
        <mxCell id="2cFxH-H-21OQhrOAg9Yz-116" value="Client" style="shape=umlActor;verticalLabelPosition=bottom;verticalAlign=top;html=1;outlineConnect=0;" vertex="1" parent="1">
          <mxGeometry x="1330" y="950" width="30" height="60" as="geometry" />
        </mxCell>
        <mxCell id="2cFxH-H-21OQhrOAg9Yz-117" value="" style="endArrow=classic;startArrow=classic;html=1;rounded=0;exitX=0.5;exitY=0;exitDx=0;exitDy=0;" edge="1" parent="1" source="2cFxH-H-21OQhrOAg9Yz-113">
          <mxGeometry width="50" height="50" relative="1" as="geometry">
            <mxPoint x="1250" y="1230" as="sourcePoint" />
            <mxPoint x="1205" y="1030" as="targetPoint" />
          </mxGeometry>
        </mxCell>
        <mxCell id="2cFxH-H-21OQhrOAg9Yz-118" value="" style="endArrow=classic;startArrow=classic;html=1;rounded=0;exitX=0.5;exitY=0;exitDx=0;exitDy=0;" edge="1" parent="1">
          <mxGeometry width="50" height="50" relative="1" as="geometry">
            <mxPoint x="1345.6599999999999" y="1070" as="sourcePoint" />
            <mxPoint x="1345.6599999999999" y="1030" as="targetPoint" />
          </mxGeometry>
        </mxCell>
        <mxCell id="2cFxH-H-21OQhrOAg9Yz-119" value="Local Database" style="text;html=1;strokeColor=none;fillColor=none;align=center;verticalAlign=middle;whiteSpace=wrap;rounded=0;" vertex="1" parent="1">
          <mxGeometry x="1157.5" y="1130" width="95" height="30" as="geometry" />
        </mxCell>
        <mxCell id="2cFxH-H-21OQhrOAg9Yz-120" value="Local Database" style="text;html=1;strokeColor=none;fillColor=none;align=center;verticalAlign=middle;whiteSpace=wrap;rounded=0;" vertex="1" parent="1">
          <mxGeometry x="1297.5" y="1130" width="95" height="30" as="geometry" />
        </mxCell>
        <mxCell id="2cFxH-H-21OQhrOAg9Yz-121" value="First-Tier Load Balancer" style="rounded=0;whiteSpace=wrap;html=1;" vertex="1" parent="1">
          <mxGeometry x="928.5" y="640" width="120" height="60" as="geometry" />
        </mxCell>
        <mxCell id="2cFxH-H-21OQhrOAg9Yz-122" value="" style="endArrow=classic;startArrow=classic;html=1;rounded=0;" edge="1" parent="1">
          <mxGeometry width="50" height="50" relative="1" as="geometry">
            <mxPoint x="1210" y="940" as="sourcePoint" />
            <mxPoint x="1260" y="900" as="targetPoint" />
          </mxGeometry>
        </mxCell>
        <mxCell id="2cFxH-H-21OQhrOAg9Yz-123" value="" style="endArrow=classic;startArrow=classic;html=1;rounded=0;" edge="1" parent="1">
          <mxGeometry width="50" height="50" relative="1" as="geometry">
            <mxPoint x="1330" y="940" as="sourcePoint" />
            <mxPoint x="1280" y="900" as="targetPoint" />
          </mxGeometry>
        </mxCell>
        <mxCell id="2cFxH-H-21OQhrOAg9Yz-124" value="" style="ellipse;shape=cloud;whiteSpace=wrap;html=1;" vertex="1" parent="1">
          <mxGeometry x="873.5" y="330" width="82.5" height="60" as="geometry" />
        </mxCell>
        <mxCell id="2cFxH-H-21OQhrOAg9Yz-125" value="Server" style="text;html=1;strokeColor=none;fillColor=none;align=center;verticalAlign=middle;whiteSpace=wrap;rounded=0;" vertex="1" parent="1">
          <mxGeometry x="884.75" y="380" width="60" height="30" as="geometry" />
        </mxCell>
        <mxCell id="2cFxH-H-21OQhrOAg9Yz-126" value="" style="ellipse;shape=cloud;whiteSpace=wrap;html=1;" vertex="1" parent="1">
          <mxGeometry x="733.5" y="330" width="82.5" height="60" as="geometry" />
        </mxCell>
        <mxCell id="2cFxH-H-21OQhrOAg9Yz-127" value="Server" style="text;html=1;strokeColor=none;fillColor=none;align=center;verticalAlign=middle;whiteSpace=wrap;rounded=0;" vertex="1" parent="1">
          <mxGeometry x="744.75" y="380" width="60" height="30" as="geometry" />
        </mxCell>
        <mxCell id="2cFxH-H-21OQhrOAg9Yz-128" value="&lt;font style=&quot;font-size: 18px;&quot;&gt;...&lt;/font&gt;" style="text;html=1;strokeColor=none;fillColor=none;align=center;verticalAlign=middle;whiteSpace=wrap;rounded=0;" vertex="1" parent="1">
          <mxGeometry x="828.5" y="345" width="30" height="30" as="geometry" />
        </mxCell>
        <mxCell id="2cFxH-H-21OQhrOAg9Yz-129" value="" style="endArrow=classic;startArrow=classic;html=1;rounded=0;entryX=0.143;entryY=0.985;entryDx=0;entryDy=0;entryPerimeter=0;" edge="1" parent="1">
          <mxGeometry width="50" height="50" relative="1" as="geometry">
            <mxPoint x="998.5" y="630" as="sourcePoint" />
            <mxPoint x="1037.08" y="579.55" as="targetPoint" />
          </mxGeometry>
        </mxCell>
        <mxCell id="2cFxH-H-21OQhrOAg9Yz-130" value="" style="endArrow=classic;startArrow=classic;html=1;rounded=0;entryX=0.75;entryY=1;entryDx=0;entryDy=0;" edge="1" parent="1">
          <mxGeometry width="50" height="50" relative="1" as="geometry">
            <mxPoint x="978.5" y="630" as="sourcePoint" />
            <mxPoint x="933.5" y="580" as="targetPoint" />
          </mxGeometry>
        </mxCell>
        <mxCell id="2cFxH-H-21OQhrOAg9Yz-131" value="1" style="shape=datastore;whiteSpace=wrap;html=1;" vertex="1" parent="1">
          <mxGeometry x="1165" y="1080" width="30" height="45" as="geometry" />
        </mxCell>
        <mxCell id="2cFxH-H-21OQhrOAg9Yz-132" value="2" style="shape=datastore;whiteSpace=wrap;html=1;" vertex="1" parent="1">
          <mxGeometry x="1215" y="1080" width="30" height="45" as="geometry" />
        </mxCell>
        <mxCell id="2cFxH-H-21OQhrOAg9Yz-133" value="" style="rounded=0;whiteSpace=wrap;html=1;" vertex="1" parent="1">
          <mxGeometry x="1285" y="1070" width="120" height="60" as="geometry" />
        </mxCell>
        <mxCell id="2cFxH-H-21OQhrOAg9Yz-134" value="1" style="shape=datastore;whiteSpace=wrap;html=1;" vertex="1" parent="1">
          <mxGeometry x="1305" y="1080" width="30" height="45" as="geometry" />
        </mxCell>
        <mxCell id="2cFxH-H-21OQhrOAg9Yz-135" value="2" style="shape=datastore;whiteSpace=wrap;html=1;" vertex="1" parent="1">
          <mxGeometry x="1355" y="1080" width="30" height="45" as="geometry" />
        </mxCell>
        <mxCell id="2cFxH-H-21OQhrOAg9Yz-136" value="" style="shape=datastore;whiteSpace=wrap;html=1;" vertex="1" parent="1">
          <mxGeometry x="764.75" y="345" width="20" height="30" as="geometry" />
        </mxCell>
        <mxCell id="2cFxH-H-21OQhrOAg9Yz-137" value="" style="shape=datastore;whiteSpace=wrap;html=1;" vertex="1" parent="1">
          <mxGeometry x="904.75" y="345" width="20" height="30" as="geometry" />
        </mxCell>
        <mxCell id="2cFxH-H-21OQhrOAg9Yz-138" value="Second-Tier Load Balancer" style="rounded=0;whiteSpace=wrap;html=1;" vertex="1" parent="1">
          <mxGeometry x="842.5" y="510" width="120" height="60" as="geometry" />
        </mxCell>
        <mxCell id="2cFxH-H-21OQhrOAg9Yz-139" value="Second-Tier Load Balancer" style="rounded=0;whiteSpace=wrap;html=1;" vertex="1" parent="1">
          <mxGeometry x="1023.5" y="510" width="120" height="60" as="geometry" />
        </mxCell>
        <mxCell id="2cFxH-H-21OQhrOAg9Yz-140" value="" style="rounded=0;whiteSpace=wrap;html=1;" vertex="1" parent="1">
          <mxGeometry x="1003.5" y="320" width="260" height="100" as="geometry" />
        </mxCell>
        <mxCell id="2cFxH-H-21OQhrOAg9Yz-141" value="" style="ellipse;shape=cloud;whiteSpace=wrap;html=1;" vertex="1" parent="1">
          <mxGeometry x="1158.5" y="330" width="82.5" height="60" as="geometry" />
        </mxCell>
        <mxCell id="2cFxH-H-21OQhrOAg9Yz-142" value="Server" style="text;html=1;strokeColor=none;fillColor=none;align=center;verticalAlign=middle;whiteSpace=wrap;rounded=0;" vertex="1" parent="1">
          <mxGeometry x="1169.75" y="380" width="60" height="30" as="geometry" />
        </mxCell>
        <mxCell id="2cFxH-H-21OQhrOAg9Yz-143" value="" style="ellipse;shape=cloud;whiteSpace=wrap;html=1;" vertex="1" parent="1">
          <mxGeometry x="1018.5" y="330" width="82.5" height="60" as="geometry" />
        </mxCell>
        <mxCell id="2cFxH-H-21OQhrOAg9Yz-144" value="Server" style="text;html=1;strokeColor=none;fillColor=none;align=center;verticalAlign=middle;whiteSpace=wrap;rounded=0;" vertex="1" parent="1">
          <mxGeometry x="1029.75" y="380" width="60" height="30" as="geometry" />
        </mxCell>
        <mxCell id="2cFxH-H-21OQhrOAg9Yz-145" value="&lt;font style=&quot;font-size: 18px;&quot;&gt;...&lt;/font&gt;" style="text;html=1;strokeColor=none;fillColor=none;align=center;verticalAlign=middle;whiteSpace=wrap;rounded=0;" vertex="1" parent="1">
          <mxGeometry x="1113.5" y="345" width="30" height="30" as="geometry" />
        </mxCell>
        <mxCell id="2cFxH-H-21OQhrOAg9Yz-146" value="" style="shape=datastore;whiteSpace=wrap;html=1;" vertex="1" parent="1">
          <mxGeometry x="1049.75" y="345" width="20" height="30" as="geometry" />
        </mxCell>
        <mxCell id="2cFxH-H-21OQhrOAg9Yz-147" value="" style="shape=datastore;whiteSpace=wrap;html=1;" vertex="1" parent="1">
          <mxGeometry x="1189.75" y="345" width="20" height="30" as="geometry" />
        </mxCell>
        <mxCell id="2cFxH-H-21OQhrOAg9Yz-148" value="" style="endArrow=classic;startArrow=classic;html=1;rounded=0;" edge="1" parent="1">
          <mxGeometry width="50" height="50" relative="1" as="geometry">
            <mxPoint x="898.5" y="500" as="sourcePoint" />
            <mxPoint x="898.5" y="430" as="targetPoint" />
          </mxGeometry>
        </mxCell>
        <mxCell id="2cFxH-H-21OQhrOAg9Yz-149" value="" style="endArrow=classic;startArrow=classic;html=1;rounded=0;" edge="1" parent="1">
          <mxGeometry width="50" height="50" relative="1" as="geometry">
            <mxPoint x="1088.98" y="500" as="sourcePoint" />
            <mxPoint x="1088.98" y="430" as="targetPoint" />
          </mxGeometry>
        </mxCell>
        <mxCell id="2cFxH-H-21OQhrOAg9Yz-150" value="" style="shape=sumEllipse;perimeter=ellipsePerimeter;whiteSpace=wrap;html=1;backgroundOutline=1;" vertex="1" parent="1">
          <mxGeometry x="1235" y="780" width="80" height="80" as="geometry" />
        </mxCell>
        <mxCell id="2cFxH-H-21OQhrOAg9Yz-151" value="" style="rounded=0;whiteSpace=wrap;html=1;" vertex="1" parent="1">
          <mxGeometry x="1288.5" y="320" width="260" height="100" as="geometry" />
        </mxCell>
        <mxCell id="2cFxH-H-21OQhrOAg9Yz-152" value="First-Tier Load Balancer" style="rounded=0;whiteSpace=wrap;html=1;" vertex="1" parent="1">
          <mxGeometry x="1498.5" y="640" width="120" height="60" as="geometry" />
        </mxCell>
        <mxCell id="2cFxH-H-21OQhrOAg9Yz-153" value="" style="ellipse;shape=cloud;whiteSpace=wrap;html=1;" vertex="1" parent="1">
          <mxGeometry x="1443.5" y="330" width="82.5" height="60" as="geometry" />
        </mxCell>
        <mxCell id="2cFxH-H-21OQhrOAg9Yz-154" value="Server" style="text;html=1;strokeColor=none;fillColor=none;align=center;verticalAlign=middle;whiteSpace=wrap;rounded=0;" vertex="1" parent="1">
          <mxGeometry x="1454.75" y="380" width="60" height="30" as="geometry" />
        </mxCell>
        <mxCell id="2cFxH-H-21OQhrOAg9Yz-155" value="" style="ellipse;shape=cloud;whiteSpace=wrap;html=1;" vertex="1" parent="1">
          <mxGeometry x="1303.5" y="330" width="82.5" height="60" as="geometry" />
        </mxCell>
        <mxCell id="2cFxH-H-21OQhrOAg9Yz-156" value="Server" style="text;html=1;strokeColor=none;fillColor=none;align=center;verticalAlign=middle;whiteSpace=wrap;rounded=0;" vertex="1" parent="1">
          <mxGeometry x="1314.75" y="380" width="60" height="30" as="geometry" />
        </mxCell>
        <mxCell id="2cFxH-H-21OQhrOAg9Yz-157" value="&lt;font style=&quot;font-size: 18px;&quot;&gt;...&lt;/font&gt;" style="text;html=1;strokeColor=none;fillColor=none;align=center;verticalAlign=middle;whiteSpace=wrap;rounded=0;" vertex="1" parent="1">
          <mxGeometry x="1398.5" y="345" width="30" height="30" as="geometry" />
        </mxCell>
        <mxCell id="2cFxH-H-21OQhrOAg9Yz-158" value="" style="endArrow=classic;startArrow=classic;html=1;rounded=0;entryX=0.143;entryY=0.985;entryDx=0;entryDy=0;entryPerimeter=0;" edge="1" parent="1">
          <mxGeometry width="50" height="50" relative="1" as="geometry">
            <mxPoint x="1568.5" y="630" as="sourcePoint" />
            <mxPoint x="1607.08" y="579.55" as="targetPoint" />
          </mxGeometry>
        </mxCell>
        <mxCell id="2cFxH-H-21OQhrOAg9Yz-159" value="" style="endArrow=classic;startArrow=classic;html=1;rounded=0;entryX=0.75;entryY=1;entryDx=0;entryDy=0;" edge="1" parent="1">
          <mxGeometry width="50" height="50" relative="1" as="geometry">
            <mxPoint x="1548.5" y="630" as="sourcePoint" />
            <mxPoint x="1503.5" y="580" as="targetPoint" />
          </mxGeometry>
        </mxCell>
        <mxCell id="2cFxH-H-21OQhrOAg9Yz-160" value="" style="shape=datastore;whiteSpace=wrap;html=1;" vertex="1" parent="1">
          <mxGeometry x="1334.75" y="345" width="20" height="30" as="geometry" />
        </mxCell>
        <mxCell id="2cFxH-H-21OQhrOAg9Yz-161" value="" style="shape=datastore;whiteSpace=wrap;html=1;" vertex="1" parent="1">
          <mxGeometry x="1474.75" y="345" width="20" height="30" as="geometry" />
        </mxCell>
        <mxCell id="2cFxH-H-21OQhrOAg9Yz-162" value="Second-Tier Load Balancer" style="rounded=0;whiteSpace=wrap;html=1;" vertex="1" parent="1">
          <mxGeometry x="1412.5" y="510" width="120" height="60" as="geometry" />
        </mxCell>
        <mxCell id="2cFxH-H-21OQhrOAg9Yz-163" value="Second-Tier Load Balancer" style="rounded=0;whiteSpace=wrap;html=1;" vertex="1" parent="1">
          <mxGeometry x="1593.5" y="510" width="120" height="60" as="geometry" />
        </mxCell>
        <mxCell id="2cFxH-H-21OQhrOAg9Yz-164" value="" style="rounded=0;whiteSpace=wrap;html=1;" vertex="1" parent="1">
          <mxGeometry x="1573.5" y="320" width="260" height="100" as="geometry" />
        </mxCell>
        <mxCell id="2cFxH-H-21OQhrOAg9Yz-165" value="" style="ellipse;shape=cloud;whiteSpace=wrap;html=1;" vertex="1" parent="1">
          <mxGeometry x="1728.5" y="330" width="82.5" height="60" as="geometry" />
        </mxCell>
        <mxCell id="2cFxH-H-21OQhrOAg9Yz-166" value="Server" style="text;html=1;strokeColor=none;fillColor=none;align=center;verticalAlign=middle;whiteSpace=wrap;rounded=0;" vertex="1" parent="1">
          <mxGeometry x="1739.75" y="380" width="60" height="30" as="geometry" />
        </mxCell>
        <mxCell id="2cFxH-H-21OQhrOAg9Yz-167" value="" style="ellipse;shape=cloud;whiteSpace=wrap;html=1;" vertex="1" parent="1">
          <mxGeometry x="1588.5" y="330" width="82.5" height="60" as="geometry" />
        </mxCell>
        <mxCell id="2cFxH-H-21OQhrOAg9Yz-168" value="Server" style="text;html=1;strokeColor=none;fillColor=none;align=center;verticalAlign=middle;whiteSpace=wrap;rounded=0;" vertex="1" parent="1">
          <mxGeometry x="1599.75" y="380" width="60" height="30" as="geometry" />
        </mxCell>
        <mxCell id="2cFxH-H-21OQhrOAg9Yz-169" value="&lt;font style=&quot;font-size: 18px;&quot;&gt;...&lt;/font&gt;" style="text;html=1;strokeColor=none;fillColor=none;align=center;verticalAlign=middle;whiteSpace=wrap;rounded=0;" vertex="1" parent="1">
          <mxGeometry x="1683.5" y="345" width="30" height="30" as="geometry" />
        </mxCell>
        <mxCell id="2cFxH-H-21OQhrOAg9Yz-170" value="" style="shape=datastore;whiteSpace=wrap;html=1;" vertex="1" parent="1">
          <mxGeometry x="1619.75" y="345" width="20" height="30" as="geometry" />
        </mxCell>
        <mxCell id="2cFxH-H-21OQhrOAg9Yz-171" value="" style="shape=datastore;whiteSpace=wrap;html=1;" vertex="1" parent="1">
          <mxGeometry x="1759.75" y="345" width="20" height="30" as="geometry" />
        </mxCell>
        <mxCell id="2cFxH-H-21OQhrOAg9Yz-172" value="" style="endArrow=classic;startArrow=classic;html=1;rounded=0;" edge="1" parent="1">
          <mxGeometry width="50" height="50" relative="1" as="geometry">
            <mxPoint x="1468.5" y="500" as="sourcePoint" />
            <mxPoint x="1468.5" y="430" as="targetPoint" />
          </mxGeometry>
        </mxCell>
        <mxCell id="2cFxH-H-21OQhrOAg9Yz-173" value="" style="endArrow=classic;startArrow=classic;html=1;rounded=0;" edge="1" parent="1">
          <mxGeometry width="50" height="50" relative="1" as="geometry">
            <mxPoint x="1658.98" y="500" as="sourcePoint" />
            <mxPoint x="1658.98" y="430" as="targetPoint" />
          </mxGeometry>
        </mxCell>
        <mxCell id="2cFxH-H-21OQhrOAg9Yz-174" value="Request Router" style="text;html=1;strokeColor=none;fillColor=none;align=center;verticalAlign=middle;whiteSpace=wrap;rounded=0;" vertex="1" parent="1">
          <mxGeometry x="1246" y="861" width="60" height="30" as="geometry" />
        </mxCell>
        <mxCell id="2cFxH-H-21OQhrOAg9Yz-175" value="&lt;font style=&quot;font-size: 18px;&quot;&gt;...&lt;/font&gt;" style="text;html=1;strokeColor=none;fillColor=none;align=center;verticalAlign=middle;whiteSpace=wrap;rounded=0;" vertex="1" parent="1">
          <mxGeometry x="280" y="710" width="30" height="30" as="geometry" />
        </mxCell>
        <mxCell id="2cFxH-H-21OQhrOAg9Yz-176" value="" style="endArrow=classic;startArrow=classic;html=1;rounded=0;" edge="1" parent="1">
          <mxGeometry width="50" height="50" relative="1" as="geometry">
            <mxPoint x="1285" y="770" as="sourcePoint" />
            <mxPoint x="1480" y="680" as="targetPoint" />
          </mxGeometry>
        </mxCell>
        <mxCell id="2cFxH-H-21OQhrOAg9Yz-177" value="" style="endArrow=classic;startArrow=classic;html=1;rounded=0;" edge="1" parent="1">
          <mxGeometry width="50" height="50" relative="1" as="geometry">
            <mxPoint x="1265" y="770" as="sourcePoint" />
            <mxPoint x="1060" y="680" as="targetPoint" />
          </mxGeometry>
        </mxCell>
        <mxCell id="2cFxH-H-21OQhrOAg9Yz-178" value="&lt;font style=&quot;font-size: 18px;&quot;&gt;...&lt;/font&gt;" style="text;html=1;strokeColor=none;fillColor=none;align=center;verticalAlign=middle;whiteSpace=wrap;rounded=0;" vertex="1" parent="1">
          <mxGeometry x="1258.5" y="660" width="30" height="30" as="geometry" />
        </mxCell>
        <mxCell id="2cFxH-H-21OQhrOAg9Yz-205" value="" style="group" vertex="1" connectable="0" parent="1">
          <mxGeometry x="-390" y="625" width="281" height="470" as="geometry" />
        </mxCell>
        <mxCell id="2cFxH-H-21OQhrOAg9Yz-179" value="" style="rounded=0;whiteSpace=wrap;html=1;" vertex="1" parent="2cFxH-H-21OQhrOAg9Yz-205">
          <mxGeometry y="380" width="120" height="60" as="geometry" />
        </mxCell>
        <mxCell id="2cFxH-H-21OQhrOAg9Yz-180" value="Client" style="shape=umlActor;verticalLabelPosition=bottom;verticalAlign=top;html=1;outlineConnect=0;" vertex="1" parent="2cFxH-H-21OQhrOAg9Yz-205">
          <mxGeometry x="45" y="260" width="30" height="60" as="geometry" />
        </mxCell>
        <mxCell id="2cFxH-H-21OQhrOAg9Yz-181" value="&lt;font style=&quot;font-size: 18px;&quot;&gt;...&lt;/font&gt;" style="text;html=1;strokeColor=none;fillColor=none;align=center;verticalAlign=middle;whiteSpace=wrap;rounded=0;" vertex="1" parent="2cFxH-H-21OQhrOAg9Yz-205">
          <mxGeometry x="115" y="275" width="30" height="30" as="geometry" />
        </mxCell>
        <mxCell id="2cFxH-H-21OQhrOAg9Yz-182" value="Client" style="shape=umlActor;verticalLabelPosition=bottom;verticalAlign=top;html=1;outlineConnect=0;" vertex="1" parent="2cFxH-H-21OQhrOAg9Yz-205">
          <mxGeometry x="185" y="260" width="30" height="60" as="geometry" />
        </mxCell>
        <mxCell id="2cFxH-H-21OQhrOAg9Yz-183" value="" style="endArrow=classic;startArrow=classic;html=1;rounded=0;exitX=0.5;exitY=0;exitDx=0;exitDy=0;" edge="1" parent="2cFxH-H-21OQhrOAg9Yz-205" source="2cFxH-H-21OQhrOAg9Yz-179">
          <mxGeometry width="50" height="50" relative="1" as="geometry">
            <mxPoint x="105" y="540" as="sourcePoint" />
            <mxPoint x="60" y="340" as="targetPoint" />
          </mxGeometry>
        </mxCell>
        <mxCell id="2cFxH-H-21OQhrOAg9Yz-184" value="" style="endArrow=classic;startArrow=classic;html=1;rounded=0;exitX=0.5;exitY=0;exitDx=0;exitDy=0;" edge="1" parent="2cFxH-H-21OQhrOAg9Yz-205">
          <mxGeometry width="50" height="50" relative="1" as="geometry">
            <mxPoint x="200.65999999999997" y="380" as="sourcePoint" />
            <mxPoint x="200.65999999999997" y="340" as="targetPoint" />
          </mxGeometry>
        </mxCell>
        <mxCell id="2cFxH-H-21OQhrOAg9Yz-185" value="Local Database" style="text;html=1;strokeColor=none;fillColor=none;align=center;verticalAlign=middle;whiteSpace=wrap;rounded=0;" vertex="1" parent="2cFxH-H-21OQhrOAg9Yz-205">
          <mxGeometry x="12.5" y="440" width="95" height="30" as="geometry" />
        </mxCell>
        <mxCell id="2cFxH-H-21OQhrOAg9Yz-186" value="Local Database" style="text;html=1;strokeColor=none;fillColor=none;align=center;verticalAlign=middle;whiteSpace=wrap;rounded=0;" vertex="1" parent="2cFxH-H-21OQhrOAg9Yz-205">
          <mxGeometry x="152.5" y="440" width="95" height="30" as="geometry" />
        </mxCell>
        <mxCell id="2cFxH-H-21OQhrOAg9Yz-188" value="" style="endArrow=classic;startArrow=classic;html=1;rounded=0;" edge="1" parent="2cFxH-H-21OQhrOAg9Yz-205">
          <mxGeometry width="50" height="50" relative="1" as="geometry">
            <mxPoint x="65" y="250" as="sourcePoint" />
            <mxPoint x="115" y="210" as="targetPoint" />
          </mxGeometry>
        </mxCell>
        <mxCell id="2cFxH-H-21OQhrOAg9Yz-189" value="" style="endArrow=classic;startArrow=classic;html=1;rounded=0;" edge="1" parent="2cFxH-H-21OQhrOAg9Yz-205">
          <mxGeometry width="50" height="50" relative="1" as="geometry">
            <mxPoint x="185" y="250" as="sourcePoint" />
            <mxPoint x="135" y="210" as="targetPoint" />
          </mxGeometry>
        </mxCell>
        <mxCell id="2cFxH-H-21OQhrOAg9Yz-190" value="" style="ellipse;shape=cloud;whiteSpace=wrap;html=1;" vertex="1" parent="2cFxH-H-21OQhrOAg9Yz-205">
          <mxGeometry x="158.75" width="82.5" height="60" as="geometry" />
        </mxCell>
        <mxCell id="2cFxH-H-21OQhrOAg9Yz-191" value="Server" style="text;html=1;strokeColor=none;fillColor=none;align=center;verticalAlign=middle;whiteSpace=wrap;rounded=0;" vertex="1" parent="2cFxH-H-21OQhrOAg9Yz-205">
          <mxGeometry x="170" y="50" width="60" height="30" as="geometry" />
        </mxCell>
        <mxCell id="2cFxH-H-21OQhrOAg9Yz-192" value="" style="ellipse;shape=cloud;whiteSpace=wrap;html=1;" vertex="1" parent="2cFxH-H-21OQhrOAg9Yz-205">
          <mxGeometry x="18.75" width="82.5" height="60" as="geometry" />
        </mxCell>
        <mxCell id="2cFxH-H-21OQhrOAg9Yz-193" value="Server" style="text;html=1;strokeColor=none;fillColor=none;align=center;verticalAlign=middle;whiteSpace=wrap;rounded=0;" vertex="1" parent="2cFxH-H-21OQhrOAg9Yz-205">
          <mxGeometry x="30" y="50" width="60" height="30" as="geometry" />
        </mxCell>
        <mxCell id="2cFxH-H-21OQhrOAg9Yz-194" value="&lt;font style=&quot;font-size: 18px;&quot;&gt;...&lt;/font&gt;" style="text;html=1;strokeColor=none;fillColor=none;align=center;verticalAlign=middle;whiteSpace=wrap;rounded=0;" vertex="1" parent="2cFxH-H-21OQhrOAg9Yz-205">
          <mxGeometry x="113.75" y="15" width="30" height="30" as="geometry" />
        </mxCell>
        <mxCell id="2cFxH-H-21OQhrOAg9Yz-195" value="" style="endArrow=classic;startArrow=classic;html=1;rounded=0;entryX=0.143;entryY=0.985;entryDx=0;entryDy=0;entryPerimeter=0;" edge="1" parent="2cFxH-H-21OQhrOAg9Yz-205" target="2cFxH-H-21OQhrOAg9Yz-191">
          <mxGeometry width="50" height="50" relative="1" as="geometry">
            <mxPoint x="140" y="130" as="sourcePoint" />
            <mxPoint x="190" y="90" as="targetPoint" />
          </mxGeometry>
        </mxCell>
        <mxCell id="2cFxH-H-21OQhrOAg9Yz-196" value="" style="endArrow=classic;startArrow=classic;html=1;rounded=0;entryX=0.75;entryY=1;entryDx=0;entryDy=0;" edge="1" parent="2cFxH-H-21OQhrOAg9Yz-205" target="2cFxH-H-21OQhrOAg9Yz-193">
          <mxGeometry width="50" height="50" relative="1" as="geometry">
            <mxPoint x="120" y="130" as="sourcePoint" />
            <mxPoint x="50" y="110" as="targetPoint" />
          </mxGeometry>
        </mxCell>
        <mxCell id="2cFxH-H-21OQhrOAg9Yz-197" value="1" style="shape=datastore;whiteSpace=wrap;html=1;" vertex="1" parent="2cFxH-H-21OQhrOAg9Yz-205">
          <mxGeometry x="20" y="390" width="30" height="45" as="geometry" />
        </mxCell>
        <mxCell id="2cFxH-H-21OQhrOAg9Yz-198" value="2" style="shape=datastore;whiteSpace=wrap;html=1;" vertex="1" parent="2cFxH-H-21OQhrOAg9Yz-205">
          <mxGeometry x="70" y="390" width="30" height="45" as="geometry" />
        </mxCell>
        <mxCell id="2cFxH-H-21OQhrOAg9Yz-199" value="" style="rounded=0;whiteSpace=wrap;html=1;" vertex="1" parent="2cFxH-H-21OQhrOAg9Yz-205">
          <mxGeometry x="140" y="380" width="120" height="60" as="geometry" />
        </mxCell>
        <mxCell id="2cFxH-H-21OQhrOAg9Yz-200" value="1" style="shape=datastore;whiteSpace=wrap;html=1;" vertex="1" parent="2cFxH-H-21OQhrOAg9Yz-205">
          <mxGeometry x="160" y="390" width="30" height="45" as="geometry" />
        </mxCell>
        <mxCell id="2cFxH-H-21OQhrOAg9Yz-201" value="2" style="shape=datastore;whiteSpace=wrap;html=1;" vertex="1" parent="2cFxH-H-21OQhrOAg9Yz-205">
          <mxGeometry x="210" y="390" width="30" height="45" as="geometry" />
        </mxCell>
        <mxCell id="2cFxH-H-21OQhrOAg9Yz-202" value="" style="shape=datastore;whiteSpace=wrap;html=1;" vertex="1" parent="2cFxH-H-21OQhrOAg9Yz-205">
          <mxGeometry x="50" y="15" width="20" height="30" as="geometry" />
        </mxCell>
        <mxCell id="2cFxH-H-21OQhrOAg9Yz-203" value="" style="shape=datastore;whiteSpace=wrap;html=1;" vertex="1" parent="2cFxH-H-21OQhrOAg9Yz-205">
          <mxGeometry x="190" y="15" width="20" height="30" as="geometry" />
        </mxCell>
        <mxCell id="2cFxH-H-21OQhrOAg9Yz-204" value="Standby Load Balancer" style="rounded=0;whiteSpace=wrap;html=1;" vertex="1" parent="2cFxH-H-21OQhrOAg9Yz-205">
          <mxGeometry x="161" y="110" width="120" height="60" as="geometry" />
        </mxCell>
        <mxCell id="2cFxH-H-21OQhrOAg9Yz-187" value="Active Load Balancer" style="rounded=0;whiteSpace=wrap;html=1;" vertex="1" parent="2cFxH-H-21OQhrOAg9Yz-205">
          <mxGeometry x="70" y="140" width="120" height="60" as="geometry" />
        </mxCell>
      </root>
    </mxGraphModel>
  </diagram>
</mxfile>
